Coordinates
version=1
nRows=23
nColumns=23
inDegrees=yes

Units are S.I. units (second, meters, Newtons, ...)
If the header above contains a line with 'inDegrees', this indicates whether rotational values are in degrees (yes) or radians (no).

endheader
time	pelvis_tilt	pelvis_list	pelvis_rotation	pelvis_tx	pelvis_ty	pelvis_tz	hip_flexion_r	hip_adduction_r	hip_rotation_r	knee_angle_r	knee_angle_r_beta	ankle_angle_r	subtalar_angle_r	mtp_angle_r	hip_flexion_l	hip_adduction_l	hip_rotation_l	knee_angle_l	knee_angle_l_beta	ankle_angle_l	subtalar_angle_l	mtp_angle_l
      0.00000000	     -6.49242510	     -5.79109108	      5.17495239	      2.26996106	      1.00878870	      1.03858986	     38.56556709	      1.99989699	    -12.32608898	     42.19447110	      0.73643245	      4.76603978	     -9.93857375	      0.00000000	    -18.28526933	     -5.91928854	     -1.10439439	     13.67312967	      0.23864113	    -15.29909467	      3.13763145	      0.00000000
      0.00666667	     -7.10052634	     -5.71949362	      4.77917390	      2.27015936	      1.01071947	      1.03982285	     38.89317948	      2.50016581	    -11.68655477	     38.45622419	      0.67118773	      5.44910432	     -7.95400479	      0.00000000	    -17.64817156	     -5.89263437	     -1.82897876	     15.47212876	      0.27003959	    -17.79107453	      2.20809159	      0.00000000
      0.01333333	     -7.74702268	     -5.70399195	      4.50358041	      2.27037164	      1.01229519	      1.04084587	     39.08494096	      2.97755332	    -11.15031757	     34.52897154	      0.60264424	      6.16997926	     -5.54774276	      0.00000000	    -16.86219742	     -5.97730530	     -2.44751259	     17.49343698	      0.30531807	    -20.02420764	      1.07290391	      0.00000000
      0.02000000	     -8.26081927	     -5.63588106	      4.37524649	      2.27062862	      1.01357518	      1.04164881	     39.01989458	      3.30927175	    -10.69137813	     30.63687206	      0.53471429	      7.00218283	     -2.71969691	      0.00000000	    -16.14390927	     -6.02819080	     -2.73076771	     19.67316800	      0.34336156	    -21.92527317	     -0.14926028	      0.00000000
      0.02666667	     -8.66307795	     -5.57950983	      4.13255431	      2.27094550	      1.01454276	      1.04256931	     38.69044787	      3.89689048	     -9.48218057	     26.67841876	      0.46562625	      7.57817970	     -0.78972093	      0.00000000	    -15.52133557	     -6.07010846	     -3.12894981	     21.99687799	      0.38391795	    -23.46324416	     -1.24685452	      0.00000000
      0.03333333	     -8.92407697	     -5.53975477	      3.95542063	      2.27128093	      1.01516747	      1.04331194	     38.10120578	      4.45224672	     -8.09481333	     22.84687810	      0.39875325	      7.92943467	      0.72802291	      0.00000000	    -14.90036311	     -6.11956199	     -3.29829994	     24.64805904	      0.43018978	    -24.45174850	     -2.39812619	      0.00000000
      0.04000000	     -9.00957366	     -5.50693021	      3.77156899	      2.27151116	      1.01557113	      1.04391566	     37.10104691	      5.17040094	     -5.60072763	     18.88547687	      0.32961375	      7.54554710	      0.09986078	      0.00000000	    -14.34256433	     -6.13642931	     -3.32145603	     27.57203920	      0.48122287	    -24.93154620	     -3.42032646	      0.00000000
      0.04666667	     -9.01353154	     -5.39334930	      3.52603077	      2.27178066	      1.01548043	      1.04438664	     36.07903530	      5.61223001	     -3.40051734	     15.54004870	      0.27122502	      7.34552513	     -0.13474508	      0.00000000	    -13.79777320	     -5.98486170	     -3.19839911	     30.69060147	      0.53565205	    -25.02271460	     -4.50081236	      0.00000000
      0.05333333	     -8.90485805	     -5.21842303	      3.22805908	      2.27200148	      1.01491460	      1.04478343	     35.22966670	      5.75303516	     -2.23954322	     13.21561526	      0.23065600	      7.66618442	      0.92339337	      0.00000000	    -13.27122158	     -5.69714645	     -2.97411433	     34.03860265	      0.59408569	    -24.69678650	     -5.61441843	      0.00000000
      0.06000000	     -8.64877287	     -5.09140497	      2.92932291	      2.27220343	      1.01413965	      1.04504499	     34.03203231	      6.02452397	     -0.20921200	     10.87967475	      0.18988615	      7.03400699	     -0.47454770	      0.00000000	    -12.78232779	     -5.42642627	     -2.72953450	     37.58311023	      0.65594902	    -24.19980214	     -6.43340345	      0.00000000
      0.06666667	     -8.29387125	     -4.95363567	      2.56195205	      2.27230345	      1.01298526	      1.04539066	     33.17194941	      6.10793872	      0.38175761	      9.81845381	      0.17136435	      7.17340493	     -0.10899841	      0.00000000	    -12.31944991	     -5.08782509	     -2.49607594	     41.24697574	      0.71989553	    -23.60821761	     -7.35833893	      0.00000000
      0.07333333	     -7.85161962	     -4.89176764	      2.15186725	      2.27242589	      1.01152301	      1.04576276	     32.30492396	      6.27945429	      0.84480776	      9.30540247	      0.16240991	      7.20112628	     -0.22840392	      0.00000000	    -11.86007153	     -4.82723209	     -2.38902556	     45.03235283	      0.78596283	    -22.93931849	     -8.12493797	      0.00000000
      0.08000000	     -7.33943299	     -4.85666164	      1.71007351	      2.27249484	      1.00978387	      1.04618325	     31.46030153	      6.48084918	      1.14272801	      9.33524552	      0.16293077	      7.08540967	     -0.69732009	      0.00000000	    -11.39024111	     -4.63568307	     -2.46918952	     48.88416048	      0.85318955	    -22.38306050	     -8.67133238	      0.00000000
      0.08666667	     -6.87374629	     -4.87706384	      1.22110695	      2.27250960	      1.00758920	      1.04672779	     30.77051975	      6.75188524	      1.35691349	      9.90519708	      0.17287830	      6.85014056	     -1.44989192	      0.00000000	    -10.77882712	     -4.56144345	     -2.73807795	     52.82458635	      0.92196296	    -21.80594191	     -8.95932005	      0.00000000
      0.09333333	     -6.30114918	     -4.96863336	      0.72557357	      2.27254789	      1.00514447	      1.04738689	     30.08476496	      7.07184357	      1.27297049	     11.02183240	      0.19236727	      6.59634537	     -1.99784750	      0.00000000	    -10.24211214	     -4.61622849	     -3.11761656	     56.73162448	      0.99015364	    -21.37762245	     -9.32268495	      0.00000000
      0.10000000	     -5.71441251	     -5.11745929	      0.25263903	      2.27260768	      1.00235554	      1.04809563	     29.48886293	      7.40058821	      0.91455730	     12.62767862	      0.22039457	      6.28747873	     -2.40895637	      0.00000000	     -9.66380072	     -4.81316124	     -3.59593109	     60.62066481	      1.05803020	    -21.07514526	     -9.69647918	      0.00000000
      0.10666667	     -4.98219601	     -5.36410714	     -0.18410624	      2.27269318	      0.99940104	      1.04885879	     28.75085740	      7.80468064	      0.53589516	     14.50018071	      0.25307590	      5.74372970	     -2.95632421	      0.00000000	     -9.22343929	     -5.18612372	     -4.13493500	     64.41564375	      1.12426507	    -20.89191075	    -10.22165341	      0.00000000
      0.11333333	     -4.64461957	     -5.51352056	     -0.62241586	      2.27255586	      0.99550115	      1.04977155	     28.72892972	      7.99653678	     -0.36016650	     17.13391983	      0.29904331	      5.45523813	     -2.71924919	      0.00000000	     -8.23162067	     -5.52308889	     -4.63511761	     68.29165136	      1.19191417	    -20.54582727	    -10.57679525	      0.00000000
      0.12000000	     -4.25101887	     -5.73500657	     -1.02348544	      2.27239073	      0.99143765	      1.05069987	     28.55350670	      8.29548396	     -0.86241060	     19.73312214	      0.34440795	      4.83195755	     -3.26856128	      0.00000000	     -7.27755675	     -6.01254143	     -5.15789732	     72.05413151	      1.25758183	    -20.19451265	    -11.02722186	      0.00000000
      0.12666667	     -3.90578338	     -5.96151441	     -1.39554072	      2.27203387	      0.98703365	      1.05167944	     28.51381383	      8.54501595	     -1.49762079	     22.61205649	      0.39465484	      4.43077937	     -3.62848491	      0.00000000	     -6.20320621	     -6.54727265	     -5.60630929	     75.74515791	      1.32200240	    -19.79433768	    -11.61262149	      0.00000000
      0.13333333	     -3.71094087	     -6.16422972	     -1.70004433	      2.27153889	      0.98226110	      1.05256434	     28.68118295	      8.72192299	     -2.12921455	     25.68768837	      0.44833474	      4.36106369	     -3.92793639	      0.00000000	     -4.87807722	     -7.10913171	     -5.94898256	     79.35543448	      1.38501361	    -19.26840516	    -12.20872799	      0.00000000
      0.14000000	     -3.54974059	     -6.38106869	     -1.96237588	      2.27078314	      0.97732553	      1.05343224	     28.89033827	      8.89103553	     -2.72269484	     28.84437958	      0.50342939	      4.76149792	     -4.16937985	      0.00000000	     -3.42797843	     -7.70402770	     -6.16966139	     82.86858624	      1.44632968	    -18.64247937	    -12.82646874	      0.00000000
      0.14666667	     -3.47350642	     -6.56501678	     -2.18669511	      2.26979059	      0.97230977	      1.05422124	     29.14820428	      9.01946761	     -3.21141763	     31.99220500	      0.55836931	      5.62406368	     -4.35317448	      0.00000000	     -1.78384611	     -8.28060996	     -6.27649864	     86.25472014	      1.50542886	    -17.90423124	    -13.39440000	      0.00000000
